<?xml version="1.0" standalone="no"?>
<!DOCTYPE svg PUBLIC "-//W3C//DTD SVG 20010904//EN"
 "http://www.w3.org/TR/2001/REC-SVG-20010904/DTD/svg10.dtd">
<svg version="1.0" xmlns="http://www.w3.org/2000/svg"
 width="700.000000pt" height="700.000000pt" viewBox="0 0 700.000000 700.000000"
 preserveAspectRatio="xMidYMid meet">
<metadata>
Created by potrace 1.11, written by Peter Selinger 2001-2013
</metadata>
<g transform="translate(0.000000,700.000000) scale(0.100000,-0.100000)"
fill="#000000" stroke="none">
<path d="M0 3500 l0 -3500 3500 0 3500 0 0 3500 0 3500 -3500 0 -3500 0 0
-3500z m2397 2272 c12 -7 33 -27 46 -45 14 -17 483 -768 1044 -1667 561 -899
1035 -1659 1054 -1687 24 -38 40 -53 57 -53 l22 0 3 1068 c4 1869 5 1790 -16
1844 -26 67 -60 88 -160 99 -93 10 -197 39 -243 68 -92 57 -134 182 -103 306
22 87 -49 80 826 80 l775 0 22 -26 c19 -23 24 -42 29 -130 13 -223 -10 -248
-275 -288 -135 -20 -176 -37 -212 -84 l-21 -28 -5 -1959 -5 -1959 -21 -28
c-26 -35 -74 -51 -184 -64 -232 -27 -409 50 -558 243 -22 29 -166 260 -320
513 -306 506 -550 899 -1205 1945 -460 735 -479 765 -514 788 l-23 14 -2
-1288 c-4 -1807 -6 -1622 18 -1669 30 -59 74 -77 254 -104 188 -28 208 -35
226 -77 17 -40 19 -246 4 -290 -22 -62 17 -59 -818 -62 -485 -1 -769 1 -781 7
-15 9 -19 29 -26 123 -14 204 -14 206 21 237 21 19 54 32 109 45 44 10 113 25
152 34 109 24 163 57 193 117 l25 50 3 1675 c2 1166 0 1686 -8 1712 -13 44
-59 86 -103 92 -254 35 -335 73 -386 181 -37 79 -21 247 25 270 32 16 1053 14
1081 -3z"/>
</g>
</svg>
