<svg width="186" height="186" viewBox="0 0 186 186" xmlns="http://www.w3.org/2000/svg" xmlns:xlink="http://www.w3.org/1999/xlink"><title>28BE3901-1721-437D-AB20-D551DB13F3F1</title><desc>Created with sketchtool.</desc><defs><circle id="a" cx="90" cy="90" r="90"/><mask id="b" x="-3" y="-3" width="186" height="186"><path fill="#fff" d="M-3-3h186v186h-186z"/><use xlink:href="#a"/></mask></defs><g transform="translate(-1187 -877) translate(1190 880)" fill="none"><use stroke="#0099D4" mask="url(#b)" stroke-width="6" xlink:href="#a"/><path d="M54.19 102.057c-1.038-.004-1.757.621-1.89 1.509-.124.828.401 1.651 1.265 1.863 2.212.544 4.449.903 6.742.747 3.299-.225 5.441-1.929 6.373-5.079.123-.417.223-.841.313-1.267.311-1.473.531-2.97.933-4.417.857-3.081 3.155-4.589 6.334-4.245 1.303.141 2.599.357 3.903.495 3.566.378 6.464-1.282 7.911-4.548.331-.746.569-1.538.795-2.324.333-1.157.503-2.374.945-3.485 1.146-2.876 2.978-5.016 6.365-5.217.586-.035 1.176.003 1.765.01 1.244.015 2.496.133 3.73.029 3.501-.295 6.041-1.996 7.353-5.313.425-1.073.726-2.195 1.157-3.265.555-1.378 1.138-2.749 1.8-4.079.406-.816 1.055-1.5 1.912-1.874 2.218-.97 4.487-1.257 6.804-.319.974.394 1.996.03 2.389-.852.402-.901-.011-1.855-.989-2.315-2.603-1.225-5.237-1.214-7.953-.346-2.532.809-4.396 2.346-5.584 4.685-.53 1.042-.988 2.125-1.409 3.216-.543 1.404-.976 2.851-1.53 4.251-.557 1.406-1.669 2.241-3.115 2.618-.499.13-1.03.193-1.545.191-1.53-.007-3.06-.098-4.59-.091-2.942.013-5.37 1.166-7.335 3.342-1.592 1.764-2.576 3.811-3.102 6.112-.272 1.188-.564 2.386-1.011 3.515-.784 1.98-2.149 2.784-4.27 2.61-1.322-.108-2.635-.331-3.955-.474-3.427-.372-6.314.615-8.475 3.386-1.144 1.466-1.694 3.178-2.068 4.963-.302 1.44-.565 2.891-.93 4.315-.348 1.357-1.294 2.097-2.697 2.281-1.731.227-3.42-.043-5.107-.372-.461-.09-.92-.191-1.233-.256m63.114-51.906l-.276-.117c-1.029-.276-2.066-.258-3.1-.048-2.612.531-4.892 1.765-6.963 3.385-4.984 3.901-9.955 7.819-14.917 11.748-11.51 9.115-23.28 17.865-35.875 25.469-2.09 1.262-4.005 2.77-5.694 4.542-1.437 1.508-2.656 3.16-3.303 5.165-.186.578-.29 1.182-.462 1.903l.537-.282c5.542-3.24 10.917-6.739 16.218-10.354.198-.135.36-.346.491-.552 1.717-2.711 4.08-4.494 7.289-5.091.268-.05.544-.175.764-.336 3.819-2.798 7.635-5.602 11.437-8.422.382-.283.72-.651 1.001-1.036 1.651-2.265 3.668-4.038 6.407-4.895.373-.117.749-.305 1.053-.547 5.724-4.557 11.447-9.115 17.147-13.701 2.642-2.126 5.234-4.313 7.847-6.473l.397-.358m-50.095 81.103l.023-.103c.838-.058 1.678-.102 2.515-.18.585-.055 1.169-.137 1.748-.241 6.554-1.18 12.613-3.664 18.263-7.106 6.629-4.038 13.015-8.444 19.263-13.045 6.969-5.132 13.712-10.534 19.845-16.652 3.381-3.372 6.548-6.926 9.032-11.024 1.859-3.068 3.077-6.357 3.223-9.975.154-3.802-1.502-6.46-4.894-7.865-2.255-.935-4.514-.699-6.751.076-2.863.991-5.409 2.565-7.747 4.439-5.068 4.063-10.102 8.169-15.102 12.314-8.159 6.763-16.517 13.262-25.359 19.126-5.177 3.433-10.401 6.797-15.593 10.208-2.35 1.543-4.584 3.226-6.404 5.401-1.844 2.203-2.506 4.656-1.873 7.49.738 3.305 2.544 5.626 5.895 6.518 1.271.338 2.61.422 3.918.621m72.552-68.78c.591.483 1.275.976 1.881 1.55 2.332 2.207 3.305 5 3.355 8.131.069 4.281-1.208 8.22-3.292 11.911-2.323 4.116-5.378 7.682-8.642 11.075-5.352 5.563-11.244 10.521-17.357 15.227-7.761 5.975-15.793 11.572-24.151 16.684-5.524 3.379-11.482 5.785-17.831 7.167-3.138.683-6.309 1.029-9.518.574-3.405-.483-6.358-1.8-8.456-4.644-.918-1.244-1.517-2.637-1.911-4.123l-.123-.434-.046-.052c-1.327.295-2.625.642-3.945.867-2.711.461-5.398.434-7.975-.69-2.924-1.276-4.551-3.601-5.328-6.597-1.089-4.201-.033-7.9 2.79-11.1 1.035-1.173 2.309-2.136 3.46-3.209.147-.137.32-.376.299-.545-.449-3.57.738-6.664 2.787-9.496 2.227-3.078 5.13-5.432 8.324-7.434 6.319-3.961 12.648-7.912 18.624-12.375 6.443-4.811 12.805-9.73 19.168-14.646 4.477-3.459 8.869-7.026 13.351-10.478 2.591-1.996 5.512-3.339 8.799-3.76 2.378-.305 4.632.052 6.653 1.416.272.184.454.091.684-.026 2.526-1.279 5.177-2.109 8.015-2.402 7.739-.799 13.406 5.944 11.747 13.132-.332 1.44-.894 2.827-1.363 4.277" fill="#0099D4"/></g></svg>