<svg xmlns="http://www.w3.org/2000/svg" width="70" height="31" viewBox="0 0 350 154.6">
  <path fill="#01A3D9" d="M0 109.6c8.2-3.5 16.4-7 24.5-10.5l22.1-9.4c.4-.2.7-.6 1.4-.3v14.1c0 1.3-1 1.2-1.7 1.4-9.3 3.4-18.6 6.7-28 10.1-.8.3-1.5.6-2.6 1.1 3.9 1.4 7.4 2.6 10.9 3.9l20.1 7.1c.6.2 1.3.3 1.3 1.3-.1 4.7 0 9.5 0 14.4-16.2-6.9-32.1-13.7-48.1-20.5.1-4.2.1-8.5.1-12.7zm208.8 45h-15.2c-1.4 0-2-.2-1.9-1.8.1-2.3.1-4.6 0-6.9 0-.8.2-1.3 1.1-1.4 2.2-.4 4.4-.9 6.5-1.3.9-.2 1.2-.6 1.2-1.5V85.6c0-1.4-.7-1.6-1.7-1.7-1.9-.4-3.9-.8-5.8-1.1-1-.1-1.4-.5-1.4-1.6.1-2.4.1-4.9 0-7.3 0-1 .3-1.3 1.3-1.3h31.7c.9 0 1.2.3 1.2 1.2v7.7c0 .8-.2 1.1-1 1.2l-6.2 1.1c-1.1.2-1.7.6-1.6 2 .1 6.7.1 13.4 0 20.2 0 1.3.3 1.7 1.7 1.7 10.1-.1 20.1-.1 30.2 0 1.2 0 1.6-.3 1.6-1.6-.1-6.8-.1-13.6 0-20.4 0-1.4-.7-1.7-1.7-1.9-2.1-.4-4.1-.8-6.2-1.1-.8-.1-.9-.4-.9-1.1 0-2.6.1-5.1 0-7.7 0-1.1.4-1.4 1.4-1.4 4.2.1 8.5 0 12.7 0h18.3c1.3 0 1.8.4 1.7 1.7-.1 2.3-.1 4.6 0 6.9 0 1-.2 1.5-1.4 1.6-1.9.2-3.9.7-5.8 1.1-1.1.2-1.6.5-1.6 1.8.1 18.6.1 37.3 0 55.9 0 1.4.7 1.6 1.7 1.8 1.9.4 3.9.8 5.8 1.1.9.1 1.3.5 1.3 1.5 0 2.4-.1 4.9 0 7.3 0 1.1-.4 1.4-1.5 1.4H243c-1 0-1.3-.3-1.3-1.3.1-2.5.1-5 0-7.5 0-.9.3-1.2 1.2-1.3 2.2-.4 4.4-.9 6.5-1.3.8-.1 1.2-.4 1.2-1.3v-20c0-1-.4-1.3-1.3-1.3h-30.7c-1.1 0-1.4.4-1.4 1.5 0 6.5.1 13.1 0 19.6 0 1.2.5 1.5 1.5 1.7 2.1.4 4.1.9 6.2 1.2 1 .1 1.3.5 1.2 1.4-.1 2.4-.1 4.9 0 7.3 0 1.1-.4 1.4-1.4 1.4-5.4-.2-10.6-.1-15.9-.1zm-65.7-81.9c6.8 0 13.6-.3 20.4.1 11.7.5 22.2 6.8 25.3 18 4.2 15-2.9 29.2-19.2 33-6.7 1.6-13.5 1.1-20.2 1.1-3.6 0-3.6 0-3.6 3.6 0 4.2.1 8.5-.1 12.7-.1 1.5.6 2 1.8 2.2 2 .4 4 .8 6 1.1 1 .1 1.1.6 1.1 1.4 0 2.4-.1 4.9 0 7.3 0 1-.2 1.4-1.4 1.4h-31.3c-1.1 0-1.5-.3-1.5-1.4.1-2.4 0-4.9 0-7.3 0-.9.3-1.2 1.2-1.4 2.1-.3 4.1-.8 6.2-1.2 1-.2 1.5-.5 1.4-1.7-.1-18.6-.1-37.3 0-55.9 0-1.3-.6-1.6-1.6-1.8-2-.4-4-.8-6-1.1-.8-.1-1.2-.4-1.2-1.2v-7.9c0-1.4 1-1.1 1.7-1.1 7 0 14 0 21 .1zm2.6 25.9c0 4 .1 7.9 0 11.9 0 1.4.4 1.7 1.7 1.7l11.7-.1c3.5-.1 7-.5 9.9-2.9 3.7-3.2 4.7-7.3 4.4-11.9-.3-6.7-5.6-11.9-12.3-12-4.6-.1-9.2 0-13.8 0-1.2 0-1.6.3-1.6 1.6v11.7zm157.4-25.9c6.8 0 13.7-.3 20.5.1 11.6.6 22 6.6 25.1 17.6 4.8 16.9-3.9 30.8-21.1 33.8-6.5 1.2-13.1.7-19.7.7-1.5 0-2.1.2-2.1 1.9.1 4.8.1 9.6 0 14.4 0 1.6.6 1.9 1.9 2.1 1.9.3 3.7.8 5.6 1 1 .1 1.3.6 1.3 1.5v7.3c0 1-.3 1.3-1.3 1.3h-31.5c-1.1 0-1.3-.4-1.3-1.3.1-2.4 0-4.9 0-7.3 0-.9.1-1.4 1.2-1.5 1.9-.2 3.7-.7 5.6-1 1.4-.2 2.1-.7 2.1-2.4-.1-13.7-.1-27.4-.1-41.1 0-4.7-.1-9.3 0-14 0-1.3-.5-1.8-1.7-2-2-.3-4-.9-6-1.1-1.1-.1-1.2-.6-1.2-1.5 0-2.3.1-4.6 0-6.9-.1-1.4.3-1.8 1.8-1.8 7 .2 14 .1 20.9.2zm12 12.7c-2.9 0-5.4.1-7.8 0-1.1 0-1.4.3-1.4 1.4v24c0 1 .2 1.5 1.4 1.5 4.2-.1 8.3.1 12.5-.1 4.7-.1 9-1.3 11.7-5.6 1.9-3.2 2.3-6.6 1.8-10.3-.7-5.1-4.5-9.4-9.5-10.5-3.1-.7-6.2-.2-8.7-.4zM81.5 130h-6.9c-.8 0-1.3-.2-1.3-1.1-.1-6.1 1.7-11.2 6.5-15.3 3.6-3 7.5-5.7 10.2-9.5 3.4-4.9 4.5-10.1 2-15.6-2.1-4.5-6.6-5.4-11.3-4.8-4.3.6-7.2 3.8-7.6 8.1-.1 1.1-.3 1.4-1.4 1.4-4.4-.1-8.8-.1-13.3 0-1.2 0-1.6-.4-1.5-1.5.3-7.9 3.3-14.5 12.1-18.3 9.2-4 18.7-4 27.9 0 8.2 3.6 12.3 10.3 12.8 19.3.5 9.2-3.9 16-10.4 21.7-1 .9-2.2 1.8-3.3 2.6-4.3 2.7-6.2 6.6-6.2 11.6 0 1.2-.3 1.7-1.6 1.6-2.4-.3-4.6-.2-6.7-.2zm-.2 23h-6.7c-1.1 0-1.6-.2-1.6-1.5.1-3.7.1-7.4 0-11.1 0-1.2.3-1.6 1.5-1.6h13.6c1.1 0 1.4.3 1.4 1.4-.1 3.8-.1 7.5 0 11.3 0 1.3-.5 1.5-1.6 1.4-2.1.1-4.3.1-6.6.1z"/>
  <path fill="#2F312F" d="M209.8 37.7V10.2c0-1.7-.2-2.7-2.2-2.6-.3 0-.6-.1-.9-.2-1.8-.3-2.8-2-2.1-3.8.2-.6.7-.5 1.1-.5h14.2c.8 0 1.1.2 1.1 1.1.1 2.9.2 3-3.2 3.4-1.6.2-1.9.8-1.9 2.3l.1 36.9c0 1.5-.4 1.8-1.9 2-3.3.4-5.1-.9-6.7-3.8-5.9-9.9-12.2-19.7-18.3-29.5-.4-.6-.6-1.3-1.4-1.8v3.7c0 8.2.1 16.4 0 24.6 0 1.6.5 2.2 2 2.2l1.9.3c1.1 0 1.3.6 1.3 1.6 0 2.6 0 2.6-2.5 2.6h-12.3c-.7 0-1.8.3-1.5-1 .3-1.1-1.2-2.7 1.2-3.2 3.8-.7 3.8-.8 3.8-4.8V9.9c0-1.5-.3-2.3-1.9-2.3-.3 0-.6-.1-.9-.2-2-.4-2.9-1.9-2.3-3.8.2-.7.7-.5 1.1-.5h9.2c1.1 0 1.4.7 1.8 1.4 6.6 10.6 13.2 21.2 19.8 31.7.3.5.7 1 1 1.6 0 0 .2-.1.4-.1zm109.1-18.5c2.4-2.9 5.1-4.6 8.4-4.9 7.7-.7 12.6 3.5 12.8 11.3.2 5.5.1 11 0 16.5 0 1.5.6 2 1.9 2.1.4 0 .8.1 1.1.1 2.1.4 2.8 1.8 2.1 3.8-.2.6-.6.6-1.1.6h-14.2c-.9 0-1-.3-1.1-1.1-.1-2.8-.2-3 2.7-3.3 1.9-.2 2.5-.8 2.5-2.8-.2-5.1 0-10.2-.1-15.4-.1-3.7-1.8-6-4.9-6.7-3.8-.8-7.1.4-9.6 3.4-.6.6-.6 1.4-.6 2.2 0 5.8.1 11.5 0 17.3 0 1.4.5 1.8 1.7 1.9.3 0 .6.1 1 .1 2.5.4 3 1.1 2.5 3.7-.1.8-.6.7-1.1.7h-14.2c-.8 0-1.3-.2-1.1-1.1.3-1-.8-2.3.8-3 .4-.2.9-.2 1.3-.3 3.1-.6 3.1-.6 3.1-3.6v-34c0-1.6-.4-2.4-2-2.4-.3 0-.6-.1-1-.1-2.1-.3-2.9-1.7-2.2-3.7.2-.6.6-.5 1.1-.5h9.2c1.3 0 1 .8 1 1.5v17.7zM130.4 43.8c-3.3 4.8-7.6 6.2-12.6 5.3-4.8-.9-7.8-4.3-8.6-9.5-.6-3.6-.3-7.2-.4-10.7 0-2.4-.1-4.9 0-7.3.1-1.4-.3-2-1.8-2.3-1.9-.3-2.8-2.2-2.1-4 .2-.5.5-.5.9-.5h8.1c1.3 0 1 .8 1 1.6v18.8c0 1.9.2 3.7.8 5.5.5 1.4 1.4 2.5 2.7 3.1 3.6 1.7 9 .1 11.1-3.3.5-.8.7-1.7.7-2.7 0-5.3-.1-10.5 0-15.7.1-1.9-.5-2.6-2.3-2.8-1.1-.1-2.5.1-2.3-1.9.2-2.5 0-2.5 2.6-2.5 2 0 4.1.1 6.1 0 1.6-.1 2.1.3 2 2l-.1 25.2c0 1.5.3 2.2 1.9 2.4 1.9.2 2.7 2.1 2 3.9-.2.6-.7.5-1.1.5h-7.1c-1 0-1.4-.3-1.4-1.3.2-1.2 0-2.2-.1-3.8zm30.7-10.6h-9.6c-1.2 0-1.7.3-1.4 1.5.2.7.2 1.5.4 2.3 1.5 6.2 6.1 8.7 12.6 7.1 1.2-.3 2.3-.7 3.4-1.3 2.4-1.4 2.4-1.3 4 1.1.7 1.1.5 1.6-.5 2.3-5.6 3.6-11.7 4.4-17.7 1.6-5.9-2.7-8.1-8-8.5-14.2-.4-5.9.8-11.3 5.3-15.6 4.3-4.1 9.5-4.7 14.8-2.8 5.1 1.8 7.3 6 7.9 11.1.2 1.8.1 3.7.3 5.6.1 1.1-.4 1.4-1.4 1.4-3.2-.2-6.4-.1-9.6-.1zm-3-4.8h6.5c.6 0 1.2.1 1.3-.9.5-4.7-3.6-8.9-8.2-8.4-3.6.3-7.7 5.1-7.4 8.6.1.8.6.7 1.1.7h6.7zm96 2.9c-.1 3.7-.5 6.7-1.8 9.6-2.8 5.9-7.5 8.6-14 8.4-6.3-.2-10.6-3.4-13-9.1-2.1-5.3-2.1-10.8-.2-16.2 2.5-7 8.2-10.4 15.8-9.7 6.5.6 11.7 5.8 12.8 12.8.2 1.6.5 3.2.4 4.2zm-6.2.4c0-3-.5-6-2-8.7-3.2-5.5-11.1-5.5-14 .1-2.9 5.6-2.8 11.5-.1 17.2 1.4 2.9 3.9 4.2 7 4.2s5.5-1.3 7.1-4.1c1.5-2.7 2-5.6 2-8.7zm-187.8 0c0-4-.1-7.3 0-10.6 0-1.4-.5-1.9-1.8-1.7h-.6c-3.2 0-3.6-.6-3-3.7.1-.9.6-.8 1.2-.8 1.3-.1 3.1.6 3.9-.3.8-1 .3-2.7.3-4.1 0-3.8 0-3.6 3.8-3.8 2-.2 2.8.3 2.4 2.3v.2c0 1.8-.6 4 .3 5.2.8 1.2 3.2.3 4.9.4.9 0 1.2.4 1.2 1.2.1 3.3.2 3.3-3.1 3.3-3.3 0-3.3 0-3.3 3.3v16.9c0 3.9 1.5 5.2 5.4 4.5 1-.2 2-.4 2 1.1 0 1.2 1.6 2.9-.9 3.5-2 .5-4 .8-6.1.5-3.6-.5-6-3.1-6.4-6.9-.4-3.6-.1-7.4-.2-10.5zm229.2-.4c0-3.4-.1-6.8 0-10.2 0-1.3-.3-1.9-1.7-1.7h-1.5c-1.8.3-2.1-.4-2.2-2.2-.1-2.1.6-2.6 2.6-2.5 2.9.2 2.9 0 2.9-2.8v-.8c0-4.8 0-4.8 4.9-4.6 1 0 1.4.3 1.3 1.3V13c-.1 1.3.2 1.9 1.7 1.7h3.3c1.2-.1 1.5.4 1.5 1.5 0 3.1 0 3.1-3 3.1-3.4 0-3.4 0-3.4 3.4v16.7c0 4.1 1.5 5.3 5.5 4.6.9-.1 1.9-.5 1.8 1-.1 1.2 1.7 2.9-.8 3.6-2.1.6-4.2.8-6.3.5-3.7-.5-6.1-3.3-6.3-7.4-.3-3.4-.2-6.9-.3-10.4zm-20.4-11.9c1.2-1.4 2-2.6 3.2-3.5 2-1.5 4.3-1.9 6.7-1.6.7.1 1.1.3 1 1.1l-.6 4c-.1.9-.7.9-1.4.8-1.5-.1-2.9-.2-4.4.2-2.9.8-4.5 2.9-4.5 5.8 0 5.3.1 10.6 0 15.9 0 1.4.4 2 1.7 2.1.3 0 .6.1 1 .1 2.5.4 3 1.2 2.5 3.7-.2.8-.6.7-1.1.7h-14.2c-.8 0-1.3-.3-1.1-1.1.3-1-.8-2.3.8-3 .4-.1.7-.2 1.1-.2 3.2-.6 3.2-.6 3.2-4 0-6.3-.1-12.7 0-19 0-1.4-.5-2-1.8-2l-.8-.1c-2.8-.4-2.9-.5-2.7-3.3 0-.8.2-1.2 1.1-1.2h8.6c.8 0 1 .3 1 1 .3 1.1.5 2.2.7 3.6zm-178.8.1c1.1-1.4 2-2.6 3.1-3.5 2.1-1.6 4.4-1.9 6.9-1.7.7.1 1.1.3.9 1.1 0 .1 0 .3-.1.4-.2 1.4-.1 3.1-.8 4.1-.8 1-2.5.1-3.8.2-2.9.1-6.5 2.5-6.3 6.5.3 5.2.1 10.4 0 15.5 0 1.4.5 2 1.8 2 .3 0 .6.1 1 .1 2.4.4 3 1.4 2.4 3.7-.2.7-.7.7-1.2.7H79.8c-.8 0-1.1-.3-1.1-1.1-.2-2.8-.1-3 2.7-3.2 1.9-.2 2.5-.8 2.5-2.8-.1-6.7-.1-13.3 0-20 0-1.4-.4-2.1-1.8-2.2-.3 0-.6-.1-1-.1-2.4-.4-3-1.4-2.4-3.7.2-.7.6-.7 1.1-.7h8.4c.8 0 1.1.2 1.2 1.1.3 1.1.5 2.1.7 3.6z"/>
</svg>
