<svg width="36" height="36" viewBox="0 0 36 36" xmlns="http://www.w3.org/2000/svg"><path d="M13.641 27.656c0-1.266-1.406-1.43-2.391-1.43-1.031 0-2.297.211-2.297 1.5 0 1.313 1.5 1.477 2.508 1.477 1.031 0 2.18-.281 2.18-1.547zm-.844-10.922c0-1.102-.539-2.086-1.734-2.086-1.336 0-1.805.891-1.805 2.109 0 1.219.516 1.969 1.805 1.969 1.266 0 1.734-.82 1.734-1.992zm3.891-1.758c-.375.117-.773.211-1.148.305.141.398.234.797.234 1.219 0 2.461-1.523 4.313-3.914 4.781-.727.117-1.148.445-1.148 1.219 0 .82 1.125 1.289 1.781 1.406 1.945.352 4.078 1.055 4.078 3.398 0 3.305-2.25 4.406-5.25 4.406-2.484 0-5.32-.844-5.32-3.82 0-1.734 1.055-2.742 2.648-3.258v-.07c-.68-.398-.961-1.031-.961-1.805 0-.75.141-1.664.891-1.992v-.07c-1.453-.492-2.414-2.508-2.414-3.961 0-2.719 2.109-4.688 4.781-4.688.914 0 1.805.234 2.578.68 1.078 0 2.156-.305 3.164-.68v2.93zm1.383 9.82c.07-.586.07-1.172.07-1.758v-9.188c0-.539 0-1.125-.07-1.664h3.211c-.047.539-.047 1.078-.047 1.617v9.07c0 .633 0 1.289.047 1.922h-3.211zm11.93-.375c-.773.422-1.664.563-2.531.563-3.094 0-3.469-2.438-3.469-4.969v-5.086h.047v-.047l-.539-.023c-.305 0-.586.047-.867.07v-2.742h1.406v-1.102c0-.445-.023-.867-.094-1.289h3.281c-.117.797-.07 1.594-.07 2.391h2.461v2.742l-1.242-.047h-1.219v5.273c0 .867.188 1.922 1.242 1.922.563 0 1.125-.164 1.594-.492v2.836zm-8.344-16.547c0 1.078-.844 2.086-1.969 2.086s-1.992-.984-1.992-2.086c0-1.125.844-2.133 1.992-2.133 1.148 0 1.969 1.031 1.969 2.133zm14.344-1.125c0-3.727-3.023-6.75-6.75-6.75h-22.5c-3.727 0-6.75 3.023-6.75 6.75v22.5c0 3.727 3.023 6.75 6.75 6.75h22.5c3.727 0 6.75-3.023 6.75-6.75v-22.5z" fill="#fff"/></svg>
