<svg width="36" height="36" viewBox="0 0 36 36" xmlns="http://www.w3.org/2000/svg"><path d="M30 11.297c-.656 1.008-1.5 1.875-2.461 2.555.023.211.023.422.023.633 0 6.516-4.969 14.016-14.016 14.016-2.789 0-5.367-.82-7.547-2.203.375.047.773.07 1.172.07 2.32 0 4.43-.797 6.117-2.109-2.156-.047-3.961-1.477-4.594-3.422.305.047.609.094.914.094.445 0 .773-.07 1.195-.188-2.25-.445-4.055-2.438-4.055-4.828v-.047c.75.352 1.523.586 2.344.609-1.336-.891-2.133-2.391-2.133-4.102 0-.891.258-1.758.68-2.484 2.438 3 6.07 4.945 10.172 5.156-.094-.352-.117-.75-.117-1.125 0-2.719 2.203-4.922 4.922-4.922 1.406 0 2.695.586 3.586 1.547 1.125-.211 2.18-.633 3.141-1.195-.375 1.148-1.148 2.133-2.18 2.742 1.008-.141 1.945-.398 2.836-.797zm6-4.547c0-3.727-3.023-6.75-6.75-6.75h-22.5c-3.727 0-6.75 3.023-6.75 6.75v22.5c0 3.727 3.023 6.75 6.75 6.75h22.5c3.727 0 6.75-3.023 6.75-6.75v-22.5z" fill="#fff"/></svg>
