<?xml version="1.0" encoding="UTF-8" standalone="no"?>
<svg width="82px" height="86px" viewBox="0 0 82 86" version="1.1" xmlns="http://www.w3.org/2000/svg" xmlns:xlink="http://www.w3.org/1999/xlink">
    <!-- Generator: Sketch 39.1 (31720) - http://www.bohemiancoding.com/sketch -->
    <title>Slice 1</title>
    <desc>Created with Sketch.</desc>
    <defs></defs>
    <g id="Page-1" stroke="none" stroke-width="1" fill="none" fill-rule="evenodd">
        <path d="M55.1469,4.4904 C51.1319,2.1234 46.4549,0.7604 41.4569,0.7604 C26.5439,0.7604 14.4539,12.8504 14.4539,27.7644 C14.4539,42.6774 26.5439,54.7674 41.4569,54.7674 C56.3709,54.7674 68.4609,42.6774 68.4609,27.7644 C68.4609,22.8074 67.1189,18.1664 64.7889,14.1744 L64.4569,15.2934 C66.4709,19.0004 67.6149,23.2484 67.6149,27.7644 C67.6149,42.2104 55.9039,53.9214 41.4569,53.9214 C27.0109,53.9214 15.2999,42.2104 15.2999,27.7644 C15.2999,13.3184 27.0109,1.6064 41.4569,1.6064 C46.0139,1.6064 50.2979,2.7734 54.0279,4.8224 L55.1469,4.4904 Z" id="Fill-2" fill="#00A1AC"></path>
        <path d="M63.4755,5.5619 L51.0185,9.2569 L51.2215,9.4599 C53.8055,9.8139 55.8245,10.6359 57.2515,11.9469 C58.6435,13.2269 59.5315,15.0879 59.9335,17.5039 L63.4755,5.5619 Z" id="Fill-4" fill="#00A1AC"></path>
        <path d="M51.1348,38.2351 L51.1348,26.1321 C51.1348,24.6671 50.9828,23.3271 50.6798,22.1111 C50.3748,20.8951 49.8508,19.8521 49.1058,18.9821 C48.3608,18.1111 47.3658,17.4341 46.1188,16.9501 C44.8728,16.4681 43.3078,16.2251 41.4228,16.2251 C39.3258,16.2251 37.4718,16.3491 35.8608,16.5981 C34.2488,16.8471 32.9578,17.0821 31.9848,17.3031 L31.9848,29.4971 L36.2258,25.2571 L36.2258,20.0391 C36.3768,20.0111 36.6278,19.9701 36.9778,19.9141 C37.3268,19.8591 37.7218,19.8111 38.1628,19.7691 C38.6038,19.7281 39.0668,19.6941 39.5538,19.6661 C40.0398,19.6391 40.5108,19.6241 40.9668,19.6241 C42.0918,19.6241 43.0338,19.7561 43.7938,20.0181 C44.5538,20.2801 45.1618,20.7021 45.6178,21.2821 C46.0738,21.8631 46.3998,22.6231 46.5988,23.5621 C46.7958,24.5021 46.8948,25.6341 46.8948,26.9611 L46.8948,38.2351 L51.1348,38.2351 Z" id="Fill-6" fill="#003549"></path>
        <polygon id="Fill-9" fill="#00A1AC" points="31.9853 34.569 31.9853 38.235 36.2253 38.235 36.2253 30.329"></polygon>
        <path d="M0.9969,75.9744 L2.9369,75.9744 L2.9369,72.3574 L0.9969,74.2974 L0.9969,75.9744 Z M74.8319,75.9744 L74.8319,72.3574 L72.8919,74.2974 L72.8919,75.9744 L74.8319,75.9744 Z" id="Fill-10" fill="#00A1AC"></path>
        <path d="M49.296,75.946 L51.249,75.946 L51.249,66.022 L49.296,66.022 L49.296,75.946 Z M7.818,75.974 L9.759,75.974 L9.759,70.437 C9.759,69.767 9.689,69.154 9.55,68.597 C9.411,68.041 9.171,67.563 8.83,67.165 C8.489,66.767 8.034,66.457 7.464,66.236 C6.893,66.015 6.177,65.904 5.315,65.904 C4.356,65.904 3.507,65.961 2.77,66.075 C2.033,66.189 1.442,66.296 0.997,66.397 L0.997,71.976 L2.937,70.036 L2.937,67.649 C3.006,67.636 3.121,67.617 3.281,67.592 C3.441,67.567 3.622,67.545 3.824,67.525 C4.025,67.507 4.237,67.491 4.46,67.478 C4.682,67.465 4.898,67.459 5.107,67.459 C5.621,67.459 6.052,67.519 6.4,67.64 C6.747,67.76 7.026,67.952 7.234,68.218 C7.443,68.483 7.592,68.831 7.683,69.261 C7.773,69.691 7.818,70.209 7.818,70.816 L7.818,75.974 Z M26.917,70.03 L21.501,70.03 C21.543,69.687 21.634,69.349 21.774,69.018 C21.913,68.688 22.099,68.395 22.33,68.141 C22.561,67.886 22.848,67.68 23.191,67.521 C23.534,67.361 23.929,67.282 24.377,67.282 C25.175,67.282 25.801,67.539 26.256,68.055 C26.711,68.57 26.931,69.228 26.917,70.03 L26.917,70.03 Z M19.485,70.985 C19.485,72.104 19.209,72.991 18.656,73.647 C18.103,74.302 17.351,74.63 16.399,74.63 C15.447,74.63 14.695,74.302 14.143,73.647 C13.59,72.991 13.313,72.104 13.313,70.985 C13.313,69.865 13.59,68.977 14.143,68.322 C14.695,67.667 15.447,67.339 16.399,67.339 C17.351,67.339 18.103,67.667 18.656,68.322 C19.209,68.977 19.485,69.865 19.485,70.985 L19.485,70.985 Z M28.943,71.089 C28.95,71.02 28.954,70.933 28.954,70.831 C28.954,69.14 28.558,67.873 27.767,67.034 C26.976,66.194 25.854,65.774 24.398,65.774 C23.642,65.774 22.911,65.946 22.204,66.29 C21.497,66.633 20.913,67.161 20.451,67.873 C20.017,67.224 19.454,66.712 18.761,66.337 C18.068,65.962 17.281,65.774 16.399,65.774 C15.657,65.774 14.972,65.898 14.342,66.146 C13.712,66.394 13.17,66.747 12.715,67.206 C12.26,67.664 11.907,68.214 11.655,68.856 C11.403,69.499 11.277,70.208 11.277,70.985 C11.277,71.773 11.403,72.486 11.655,73.122 C11.907,73.758 12.26,74.305 12.715,74.763 C13.17,75.221 13.712,75.574 14.342,75.823 C14.972,76.071 15.657,76.195 16.399,76.195 C17.281,76.195 18.065,76.016 18.751,75.66 C19.436,75.304 20.003,74.782 20.451,74.095 C20.857,74.744 21.427,75.253 22.162,75.622 C22.897,75.991 23.817,76.176 24.923,76.176 C25.679,76.176 26.354,76.112 26.949,75.985 C27.543,75.858 27.96,75.736 28.198,75.622 L27.925,74.133 C27.687,74.235 27.334,74.34 26.865,74.448 C26.396,74.556 25.818,74.61 25.133,74.61 C23.929,74.61 23.037,74.34 22.456,73.799 C21.875,73.259 21.543,72.48 21.459,71.462 L28.933,71.462 L28.933,71.29 C28.933,71.226 28.936,71.159 28.943,71.089 L28.943,71.089 Z M36.805,67.644 L37.141,66.099 C37.057,66.073 36.927,66.045 36.752,66.013 C36.577,65.981 36.385,65.949 36.175,65.917 C35.965,65.885 35.752,65.86 35.535,65.841 C35.318,65.822 35.126,65.812 34.957,65.812 C34.104,65.812 33.334,65.879 32.648,66.013 C31.962,66.146 31.389,66.29 30.927,66.442 L30.927,75.946 L32.879,75.946 L32.879,67.606 C32.991,67.581 33.226,67.533 33.582,67.463 C33.939,67.393 34.3,67.358 34.664,67.358 C35.223,67.358 35.682,67.393 36.039,67.463 C36.395,67.533 36.651,67.594 36.805,67.644 L36.805,67.644 Z M44.824,74.401 C44.628,74.452 44.352,74.499 43.995,74.544 C43.638,74.588 43.193,74.61 42.662,74.61 C41.612,74.61 40.772,74.295 40.143,73.666 C39.513,73.036 39.198,72.142 39.198,70.985 C39.198,70.476 39.254,69.999 39.366,69.553 C39.478,69.108 39.66,68.723 39.912,68.398 C40.164,68.074 40.489,67.82 40.888,67.635 C41.287,67.451 41.766,67.358 42.326,67.358 C42.858,67.358 43.347,67.441 43.796,67.606 C44.243,67.772 44.586,67.943 44.824,68.121 L44.824,74.401 Z M45.055,76.004 C45.755,75.889 46.329,75.775 46.777,75.66 L46.777,61.136 L44.83,63.077 L44.824,66.461 C44.586,66.321 44.226,66.175 43.743,66.022 C43.26,65.87 42.704,65.793 42.074,65.793 C41.29,65.793 40.594,65.92 39.985,66.175 C39.376,66.429 38.862,66.786 38.442,67.244 C38.022,67.702 37.704,68.249 37.487,68.885 C37.27,69.521 37.162,70.221 37.162,70.985 C37.162,71.786 37.291,72.508 37.55,73.15 C37.809,73.793 38.176,74.337 38.652,74.782 C39.128,75.228 39.702,75.571 40.374,75.813 C41.045,76.054 41.801,76.176 42.641,76.176 C43.55,76.176 44.355,76.118 45.055,76.004 L45.055,76.004 Z M51.153,63.913 C51.398,63.703 51.521,63.42 51.521,63.064 C51.521,62.708 51.398,62.425 51.153,62.215 C50.908,62.005 50.611,61.9 50.261,61.9 C49.911,61.9 49.614,62.005 49.369,62.215 C49.124,62.425 49.002,62.708 49.002,63.064 C49.002,63.42 49.124,63.703 49.369,63.913 C49.614,64.123 49.911,64.228 50.261,64.228 C50.611,64.228 50.908,64.123 51.153,63.913 L51.153,63.913 Z M61.472,73.389 C61.472,72.918 61.394,72.521 61.241,72.196 C61.087,71.872 60.866,71.595 60.579,71.366 C60.292,71.137 59.946,70.937 59.54,70.765 C59.134,70.593 58.672,70.418 58.155,70.24 C57.763,70.113 57.427,69.992 57.147,69.877 C56.867,69.763 56.633,69.639 56.444,69.505 C56.255,69.372 56.115,69.222 56.024,69.057 C55.932,68.892 55.887,68.701 55.887,68.484 C55.887,68.064 56.09,67.756 56.496,67.559 C56.902,67.362 57.378,67.263 57.924,67.263 C58.554,67.263 59.092,67.317 59.54,67.425 C59.988,67.533 60.317,67.638 60.527,67.74 L60.884,66.213 C60.772,66.175 60.614,66.13 60.411,66.08 C60.208,66.029 59.974,65.981 59.708,65.936 C59.442,65.892 59.155,65.854 58.848,65.822 C58.54,65.79 58.232,65.774 57.924,65.774 C56.692,65.774 55.719,66.032 55.006,66.547 C54.292,67.062 53.935,67.759 53.935,68.637 C53.935,69.083 54.019,69.457 54.187,69.763 C54.355,70.068 54.578,70.329 54.859,70.545 C55.138,70.762 55.471,70.95 55.856,71.108 C56.241,71.268 56.643,71.423 57.063,71.576 C57.931,71.894 58.554,72.181 58.931,72.435 C59.309,72.69 59.498,73.033 59.498,73.465 C59.498,73.885 59.306,74.191 58.921,74.382 C58.536,74.572 57.945,74.668 57.147,74.668 C56.335,74.668 55.684,74.591 55.195,74.439 C54.704,74.286 54.348,74.172 54.124,74.095 L53.767,75.622 C53.963,75.698 54.334,75.81 54.88,75.956 C55.426,76.102 56.181,76.176 57.147,76.176 C58.533,76.176 59.6,75.94 60.348,75.469 C61.097,74.999 61.472,74.305 61.472,73.389 L61.472,73.389 Z M64.757,72.473 C64.624,72.028 64.558,71.538 64.558,71.003 C64.558,69.808 64.848,68.898 65.429,68.274 C66.009,67.651 66.846,67.339 67.938,67.339 C68.371,67.339 68.781,67.377 69.166,67.454 C69.55,67.53 69.89,67.632 70.184,67.759 L70.625,66.251 C70.177,66.086 69.708,65.965 69.218,65.889 C68.728,65.812 68.238,65.774 67.749,65.774 C66.951,65.774 66.227,65.905 65.576,66.165 C64.925,66.426 64.376,66.789 63.928,67.253 C63.48,67.718 63.133,68.268 62.889,68.904 C62.643,69.541 62.521,70.24 62.521,71.003 C62.521,71.767 62.633,72.463 62.857,73.093 C63.081,73.723 63.42,74.267 63.875,74.725 C64.33,75.183 64.89,75.539 65.555,75.794 C66.219,76.048 66.993,76.176 67.875,76.176 C68.154,76.176 68.445,76.159 68.746,76.128 C69.047,76.096 69.33,76.058 69.596,76.013 C69.862,75.968 70.1,75.918 70.31,75.86 C70.52,75.803 70.68,75.743 70.793,75.679 L70.52,74.191 C70.282,74.293 69.953,74.388 69.533,74.477 C69.113,74.566 68.644,74.61 68.126,74.61 C67.483,74.61 66.937,74.525 66.489,74.353 C66.041,74.181 65.674,73.936 65.387,73.618 C65.1,73.3 64.89,72.918 64.757,72.473 L64.757,72.473 Z M81.709,75.946 L81.709,70.374 C81.709,69.699 81.639,69.083 81.499,68.522 C81.359,67.963 81.118,67.482 80.775,67.081 C80.432,66.681 79.974,66.369 79.4,66.146 C78.826,65.924 78.105,65.812 77.238,65.812 C76.832,65.812 76.422,65.847 76.01,65.917 C75.963,65.925 75.92,65.937 75.874,65.946 C75.509,65.97 75.169,66.006 74.844,66.051 L74.832,61.136 L72.892,63.077 L72.892,71.976 L74.832,70.036 L74.844,67.702 C74.914,67.676 75.03,67.644 75.191,67.606 C75.259,67.59 75.347,67.577 75.422,67.562 C75.52,67.549 75.608,67.536 75.719,67.525 C75.92,67.507 76.132,67.491 76.355,67.478 C76.578,67.465 76.793,67.459 77.002,67.459 C77.516,67.459 77.947,67.519 78.295,67.64 C78.643,67.76 78.921,67.952 79.13,68.218 C79.338,68.483 79.488,68.831 79.578,69.261 C79.668,69.691 79.714,70.209 79.714,70.816 L79.714,75.974 L81.654,75.974 L81.654,75.946 L81.709,75.946 Z" id="Fill-11" fill="#003549"></path>
        <path d="M81.7464,81.0394 C81.7034,80.9004 81.6394,80.7714 81.5544,80.6524 C81.4704,80.5334 81.3644,80.4314 81.2374,80.3444 C81.1114,80.2574 80.9634,80.1894 80.7944,80.1404 C80.6254,80.0914 80.4374,80.0674 80.2294,80.0674 C79.9804,80.0674 79.7594,80.1014 79.5654,80.1694 C79.3704,80.2384 79.2074,80.3314 79.0754,80.4484 C78.9424,80.5664 78.8414,80.7034 78.7714,80.8584 C78.7024,81.0134 78.6674,81.1774 78.6674,81.3514 C78.6674,81.5594 78.7044,81.7344 78.7774,81.8784 C78.8504,82.0224 78.9464,82.1454 79.0644,82.2484 C79.1834,82.3514 79.3184,82.4384 79.4704,82.5084 C79.6224,82.5794 79.7774,82.6434 79.9364,82.7004 C80.0954,82.7574 80.2504,82.8134 80.4024,82.8684 C80.5534,82.9234 80.6894,82.9874 80.8084,83.0604 C80.9264,83.1334 81.0224,83.2194 81.0954,83.3184 C81.1684,83.4184 81.2054,83.5404 81.2054,83.6874 C81.2054,83.8104 81.1834,83.9194 81.1404,84.0144 C81.0974,84.1094 81.0364,84.1884 80.9584,84.2524 C80.8814,84.3164 80.7874,84.3634 80.6784,84.3964 C80.5684,84.4284 80.4474,84.4434 80.3144,84.4434 C80.1824,84.4434 80.0584,84.4254 79.9434,84.3894 C79.8274,84.3524 79.7224,84.3014 79.6264,84.2364 C79.5304,84.1714 79.4454,84.0934 79.3714,84.0024 C79.2974,83.9104 79.2344,83.8104 79.1844,83.7004 L78.4964,83.9504 C78.5574,84.1334 78.6454,84.2984 78.7564,84.4454 C78.8684,84.5924 79.0014,84.7184 79.1554,84.8224 C79.3094,84.9264 79.4824,85.0064 79.6724,85.0614 C79.8634,85.1174 80.0684,85.1454 80.2874,85.1454 C80.5224,85.1454 80.7424,85.1134 80.9464,85.0484 C81.1514,84.9834 81.3284,84.8884 81.4794,84.7644 C81.6304,84.6394 81.7484,84.4864 81.8334,84.3054 C81.9194,84.1234 81.9624,83.9154 81.9624,83.6804 C81.9624,83.4584 81.9254,83.2684 81.8524,83.1094 C81.7794,82.9514 81.6834,82.8154 81.5644,82.7024 C81.4464,82.5894 81.3114,82.4934 81.1594,82.4144 C81.0074,82.3364 80.8524,82.2664 80.6934,82.2054 C80.5344,82.1454 80.3794,82.0894 80.2274,82.0384 C80.0754,81.9864 79.9404,81.9304 79.8214,81.8684 C79.7034,81.8064 79.6074,81.7354 79.5344,81.6544 C79.4614,81.5734 79.4244,81.4744 79.4244,81.3584 C79.4244,81.1714 79.4904,81.0254 79.6234,80.9234 C79.7554,80.8204 79.9394,80.7694 80.1744,80.7694 C80.2934,80.7694 80.4014,80.7814 80.4984,80.8064 C80.5954,80.8314 80.6814,80.8664 80.7564,80.9114 C80.8324,80.9554 80.8964,81.0084 80.9484,81.0684 C81.0004,81.1294 81.0414,81.1944 81.0714,81.2654 L81.7464,81.0394 Z M76.5694,85.0604 L76.5694,80.1494 L75.8404,80.1494 L75.8404,83.4334 L75.8614,83.8034 L75.6594,83.4264 L73.5874,80.1494 L72.8504,80.1494 L72.8504,85.0604 L73.5804,85.0604 L73.5804,81.7274 L73.5594,81.3644 L73.7584,81.7274 L75.8814,85.0604 L76.5694,85.0604 Z M68.0304,84.2774 C67.8544,84.1674 67.7114,84.0234 67.6024,83.8464 C67.4924,83.6694 67.4134,83.4714 67.3664,83.2534 C67.3184,83.0354 67.2944,82.8194 67.2944,82.6044 C67.2944,82.4724 67.3044,82.3344 67.3254,82.1924 C67.3454,82.0494 67.3784,81.9104 67.4234,81.7744 C67.4694,81.6384 67.5284,81.5094 67.6004,81.3874 C67.6724,81.2654 67.7594,81.1584 67.8624,81.0674 C67.9654,80.9754 68.0844,80.9034 68.2184,80.8494 C68.3534,80.7954 68.5064,80.7694 68.6774,80.7694 C68.8484,80.7694 69.0014,80.7944 69.1364,80.8464 C69.2714,80.8974 69.3894,80.9674 69.4914,81.0554 C69.5924,81.1434 69.6794,81.2464 69.7514,81.3644 C69.8234,81.4834 69.8824,81.6114 69.9274,81.7464 C69.9734,81.8824 70.0064,82.0244 70.0274,82.1714 C70.0474,82.3184 70.0574,82.4634 70.0574,82.6044 C70.0574,82.7394 70.0474,82.8784 70.0274,83.0204 C70.0064,83.1634 69.9734,83.3034 69.9274,83.4384 C69.8824,83.5744 69.8234,83.7034 69.7514,83.8254 C69.6794,83.9484 69.5924,84.0544 69.4914,84.1454 C69.3894,84.2374 69.2714,84.3094 69.1364,84.3634 C69.0014,84.4174 68.8484,84.4434 68.6774,84.4434 C68.4214,84.4434 68.2064,84.3884 68.0304,84.2774 L68.0304,84.2774 Z M69.3834,85.0414 C69.5904,84.9714 69.7744,84.8774 69.9324,84.7574 C70.0914,84.6374 70.2264,84.4964 70.3384,84.3324 C70.4504,84.1694 70.5424,83.9934 70.6124,83.8054 C70.6834,83.6164 70.7344,83.4204 70.7664,83.2164 C70.7984,83.0114 70.8144,82.8074 70.8144,82.6044 C70.8144,82.4034 70.7984,82.2014 70.7664,81.9974 C70.7344,81.7924 70.6834,81.5964 70.6124,81.4074 C70.5424,81.2194 70.4504,81.0434 70.3384,80.8804 C70.2264,80.7174 70.0914,80.5754 69.9324,80.4554 C69.7744,80.3354 69.5904,80.2414 69.3834,80.1714 C69.1754,80.1014 68.9404,80.0674 68.6774,80.0674 C68.4154,80.0674 68.1794,80.1014 67.9724,80.1714 C67.7644,80.2414 67.5814,80.3354 67.4224,80.4554 C67.2634,80.5754 67.1284,80.7174 67.0164,80.8804 C66.9044,81.0434 66.8134,81.2194 66.7424,81.4074 C66.6714,81.5964 66.6204,81.7924 66.5864,81.9974 C66.5534,82.2014 66.5374,82.4034 66.5374,82.6044 C66.5374,82.8074 66.5534,83.0114 66.5864,83.2164 C66.6204,83.4204 66.6714,83.6164 66.7424,83.8054 C66.8134,83.9934 66.9044,84.1694 67.0164,84.3324 C67.1284,84.4964 67.2634,84.6374 67.4224,84.7574 C67.5814,84.8774 67.7644,84.9714 67.9724,85.0414 C68.1794,85.1114 68.4154,85.1454 68.6774,85.1454 C68.9404,85.1454 69.1754,85.1114 69.3834,85.0414 L69.3834,85.0414 Z M63.7404,85.0604 L64.4694,85.0604 L64.4694,80.1494 L63.7404,80.1494 L63.7404,85.0604 Z M61.8114,80.8514 L61.8114,80.1494 L58.3044,80.1494 L58.3044,80.8514 L59.6944,80.8514 L59.6944,85.0604 L60.4234,85.0604 L60.4234,80.8514 L61.8114,80.8514 Z M55.3294,85.0444 C55.5554,84.9774 55.7514,84.8674 55.9164,84.7144 C56.0824,84.5614 56.2124,84.3614 56.3054,84.1134 C56.3994,83.8654 56.4464,83.5614 56.4464,83.2004 L56.4464,80.1494 L55.7164,80.1494 L55.7164,83.2004 C55.7164,83.4474 55.6884,83.6504 55.6314,83.8104 C55.5734,83.9704 55.4944,84.0964 55.3934,84.1904 C55.2914,84.2834 55.1724,84.3494 55.0364,84.3874 C54.9004,84.4244 54.7544,84.4434 54.5964,84.4434 C54.4394,84.4434 54.2914,84.4244 54.1544,84.3874 C54.0174,84.3494 53.8994,84.2834 53.8004,84.1904 C53.7004,84.0964 53.6234,83.9704 53.5654,83.8104 C53.5084,83.6504 53.4804,83.4474 53.4804,83.2004 L53.4804,80.1494 L52.7504,80.1494 L52.7504,83.2004 C52.7504,83.5654 52.7994,83.8724 52.8964,84.1204 C52.9934,84.3684 53.1254,84.5674 53.2914,84.7194 C53.4584,84.8714 53.6544,84.9804 53.8794,85.0464 C54.1044,85.1134 54.3434,85.1454 54.5964,85.1454 C54.8594,85.1454 55.1034,85.1124 55.3294,85.0444 L55.3294,85.0444 Z M50.8924,85.0604 L50.8924,84.3584 L48.4924,84.3584 L48.4924,80.1494 L47.7624,80.1494 L47.7624,85.0604 L50.8924,85.0604 Z M42.9424,84.2774 C42.7664,84.1674 42.6234,84.0234 42.5144,83.8464 C42.4044,83.6694 42.3254,83.4714 42.2774,83.2534 C42.2294,83.0354 42.2054,82.8194 42.2054,82.6044 C42.2054,82.4724 42.2164,82.3344 42.2364,82.1924 C42.2574,82.0494 42.2904,81.9104 42.3354,81.7744 C42.3814,81.6384 42.4404,81.5094 42.5124,81.3874 C42.5844,81.2654 42.6714,81.1584 42.7744,81.0674 C42.8774,80.9754 42.9954,80.9034 43.1304,80.8494 C43.2654,80.7954 43.4184,80.7694 43.5894,80.7694 C43.7604,80.7694 43.9134,80.7944 44.0484,80.8464 C44.1834,80.8974 44.3014,80.9674 44.4024,81.0554 C44.5044,81.1434 44.5914,81.2464 44.6634,81.3644 C44.7354,81.4834 44.7934,81.6114 44.8394,81.7464 C44.8854,81.8824 44.9184,82.0244 44.9384,82.1714 C44.9594,82.3184 44.9694,82.4634 44.9694,82.6044 C44.9694,82.7394 44.9594,82.8784 44.9384,83.0204 C44.9184,83.1634 44.8854,83.3034 44.8394,83.4384 C44.7934,83.5744 44.7354,83.7034 44.6634,83.8254 C44.5914,83.9484 44.5044,84.0544 44.4024,84.1454 C44.3014,84.2374 44.1834,84.3094 44.0484,84.3634 C43.9134,84.4174 43.7604,84.4434 43.5894,84.4434 C43.3334,84.4434 43.1174,84.3884 42.9424,84.2774 L42.9424,84.2774 Z M44.2954,85.0414 C44.5024,84.9714 44.6864,84.8774 44.8444,84.7574 C45.0034,84.6374 45.1384,84.4964 45.2504,84.3324 C45.3624,84.1694 45.4534,83.9934 45.5244,83.8054 C45.5954,83.6164 45.6464,83.4204 45.6784,83.2164 C45.7104,83.0114 45.7264,82.8074 45.7264,82.6044 C45.7264,82.4034 45.7104,82.2014 45.6784,81.9974 C45.6464,81.7924 45.5954,81.5964 45.5244,81.4074 C45.4534,81.2194 45.3624,81.0434 45.2504,80.8804 C45.1384,80.7174 45.0034,80.5754 44.8444,80.4554 C44.6864,80.3354 44.5024,80.2414 44.2954,80.1714 C44.0864,80.1014 43.8524,80.0674 43.5894,80.0674 C43.3264,80.0674 43.0914,80.1014 42.8834,80.1714 C42.6764,80.2414 42.4924,80.3354 42.3344,80.4554 C42.1754,80.5754 42.0404,80.7174 41.9284,80.8804 C41.8164,81.0434 41.7254,81.2194 41.6544,81.4074 C41.5834,81.5964 41.5314,81.7924 41.4984,81.9974 C41.4654,82.2014 41.4484,82.4034 41.4484,82.6044 C41.4484,82.8074 41.4654,83.0114 41.4984,83.2164 C41.5314,83.4204 41.5834,83.6164 41.6544,83.8054 C41.7254,83.9934 41.8164,84.1694 41.9284,84.3324 C42.0404,84.4964 42.1754,84.6374 42.3344,84.7574 C42.4924,84.8774 42.6764,84.9714 42.8834,85.0414 C43.0914,85.1114 43.3264,85.1454 43.5894,85.1454 C43.8524,85.1454 44.0864,85.1114 44.2954,85.0414 L44.2954,85.0414 Z M39.4094,81.0394 C39.3664,80.9004 39.3024,80.7714 39.2174,80.6524 C39.1334,80.5334 39.0274,80.4314 38.9014,80.3444 C38.7744,80.2574 38.6264,80.1894 38.4574,80.1404 C38.2884,80.0914 38.1004,80.0674 37.8924,80.0674 C37.6434,80.0674 37.4214,80.1014 37.2274,80.1694 C37.0334,80.2384 36.8704,80.3314 36.7384,80.4484 C36.6054,80.5664 36.5044,80.7034 36.4354,80.8584 C36.3654,81.0134 36.3304,81.1774 36.3304,81.3514 C36.3304,81.5594 36.3674,81.7344 36.4404,81.8784 C36.5134,82.0224 36.6094,82.1454 36.7284,82.2484 C36.8464,82.3514 36.9814,82.4384 37.1334,82.5084 C37.2854,82.5794 37.4404,82.6434 37.5994,82.7004 C37.7584,82.7574 37.9134,82.8134 38.0654,82.8684 C38.2174,82.9234 38.3524,82.9874 38.4714,83.0604 C38.5894,83.1334 38.6854,83.2194 38.7584,83.3184 C38.8314,83.4184 38.8684,83.5404 38.8684,83.6874 C38.8684,83.8104 38.8464,83.9194 38.8034,84.0144 C38.7594,84.1094 38.6994,84.1884 38.6214,84.2524 C38.5444,84.3164 38.4504,84.3634 38.3414,84.3964 C38.2314,84.4284 38.1104,84.4434 37.9784,84.4434 C37.8454,84.4434 37.7214,84.4254 37.6064,84.3894 C37.4914,84.3524 37.3854,84.3014 37.2894,84.2364 C37.1934,84.1714 37.1084,84.0934 37.0344,84.0024 C36.9604,83.9104 36.8984,83.8104 36.8474,83.7004 L36.1594,83.9504 C36.2214,84.1334 36.3074,84.2984 36.4194,84.4454 C36.5314,84.5924 36.6644,84.7184 36.8184,84.8224 C36.9724,84.9264 37.1454,85.0064 37.3354,85.0614 C37.5264,85.1174 37.7314,85.1454 37.9504,85.1454 C38.1854,85.1454 38.4054,85.1134 38.6094,85.0484 C38.8144,84.9834 38.9914,84.8884 39.1424,84.7644 C39.2934,84.6394 39.4114,84.4864 39.4964,84.3054 C39.5824,84.1234 39.6254,83.9154 39.6254,83.6804 C39.6254,83.4584 39.5884,83.2684 39.5154,83.1094 C39.4424,82.9514 39.3464,82.8154 39.2284,82.7024 C39.1094,82.5894 38.9734,82.4934 38.8224,82.4144 C38.6704,82.3364 38.5154,82.2664 38.3564,82.2054 C38.1974,82.1454 38.0424,82.0894 37.8904,82.0384 C37.7384,81.9864 37.6034,81.9304 37.4844,81.8684 C37.3664,81.8064 37.2704,81.7354 37.1974,81.6544 C37.1244,81.5734 37.0874,81.4744 37.0874,81.3584 C37.0874,81.1714 37.1534,81.0254 37.2864,80.9234 C37.4184,80.8204 37.6024,80.7694 37.8374,80.7694 C37.9564,80.7694 38.0644,80.7814 38.1614,80.8064 C38.2584,80.8314 38.3444,80.8664 38.4194,80.9114 C38.4954,80.9554 38.5584,81.0084 38.6114,81.0684 C38.6644,81.1294 38.7054,81.1944 38.7344,81.2654 L39.4094,81.0394 Z M31.9884,85.0604 L31.9884,84.3584 L29.5874,84.3584 L29.5874,80.1494 L28.8574,80.1494 L28.8574,85.0604 L31.9884,85.0604 Z M25.6124,83.2864 L24.0754,83.2864 L24.6814,81.6154 C24.7084,81.5354 24.7374,81.4444 24.7684,81.3424 C24.7994,81.2414 24.8264,81.1474 24.8494,81.0634 C24.8674,81.1474 24.8934,81.2414 24.9264,81.3444 C24.9594,81.4474 24.9894,81.5374 25.0164,81.6154 L25.6124,83.2864 Z M26.9864,85.0604 L25.2184,80.1494 L24.4684,80.1494 L22.6954,85.0604 L23.4514,85.0604 L23.8524,83.9304 L25.8384,83.9304 L26.2294,85.0604 L26.9864,85.0604 Z M21.7004,80.8514 L21.7004,80.1494 L18.1934,80.1494 L18.1934,80.8514 L19.5834,80.8514 L19.5834,85.0604 L20.3134,85.0604 L20.3134,80.8514 L21.7004,80.8514 Z M15.5374,85.0604 L16.2664,85.0604 L16.2664,80.1494 L15.5374,80.1494 L15.5374,85.0604 Z M12.3844,85.0224 C12.6014,84.9404 12.7904,84.8184 12.9514,84.6574 C13.1124,84.4974 13.2384,84.2984 13.3294,84.0624 C13.4214,83.8254 13.4674,83.5534 13.4674,83.2454 L13.4674,82.6044 L11.8334,82.6044 L11.8334,83.2934 L12.7164,83.2934 L12.7164,83.3924 C12.7164,83.5384 12.6914,83.6744 12.6414,83.8004 C12.5914,83.9254 12.5204,84.0354 12.4294,84.1284 C12.3374,84.2224 12.2284,84.2964 12.1004,84.3494 C11.9724,84.4034 11.8324,84.4304 11.6794,84.4304 C11.4344,84.4304 11.2254,84.3794 11.0504,84.2774 C10.8764,84.1764 10.7324,84.0404 10.6214,83.8704 C10.5084,83.7004 10.4264,83.5054 10.3744,83.2864 C10.3214,83.0674 10.2954,82.8394 10.2954,82.6044 C10.2954,82.4704 10.3054,82.3314 10.3244,82.1884 C10.3444,82.0454 10.3744,81.9074 10.4174,81.7724 C10.4594,81.6374 10.5154,81.5104 10.5864,81.3904 C10.6574,81.2704 10.7434,81.1654 10.8454,81.0754 C10.9464,80.9854 11.0664,80.9144 11.2044,80.8614 C11.3424,80.8094 11.5014,80.7824 11.6794,80.7824 C11.8044,80.7824 11.9174,80.7984 12.0184,80.8304 C12.1184,80.8624 12.2104,80.9064 12.2924,80.9604 C12.3744,81.0154 12.4484,81.0784 12.5134,81.1514 C12.5784,81.2224 12.6394,81.2984 12.6964,81.3784 L13.3544,80.9984 C13.2784,80.8774 13.1934,80.7604 13.0974,80.6494 C13.0014,80.5374 12.8874,80.4384 12.7544,80.3514 C12.6224,80.2644 12.4684,80.1954 12.2934,80.1434 C12.1194,80.0924 11.9144,80.0674 11.6794,80.0674 C11.4344,80.0674 11.2124,80.1014 11.0114,80.1714 C10.8104,80.2414 10.6304,80.3364 10.4714,80.4574 C10.3134,80.5784 10.1754,80.7214 10.0594,80.8854 C9.9424,81.0494 9.8454,81.2264 9.7684,81.4144 C9.6904,81.6034 9.6334,81.7984 9.5954,82.0024 C9.5574,82.2054 9.5384,82.4064 9.5384,82.6044 C9.5384,82.8194 9.5564,83.0314 9.5914,83.2404 C9.6274,83.4484 9.6824,83.6474 9.7564,83.8344 C9.8304,84.0214 9.9254,84.1954 10.0404,84.3564 C10.1554,84.5174 10.2924,84.6564 10.4514,84.7724 C10.6094,84.8894 10.7914,84.9804 10.9944,85.0464 C11.1974,85.1134 11.4254,85.1454 11.6794,85.1454 C11.9324,85.1454 12.1674,85.1044 12.3844,85.0224 L12.3844,85.0224 Z M6.7424,85.0604 L7.4724,85.0604 L7.4724,80.1494 L6.7424,80.1494 L6.7424,85.0604 Z M1.6824,84.3714 L1.6824,80.8374 L2.4974,80.8374 C2.7484,80.8374 2.9634,80.8884 3.1434,80.9894 C3.3224,81.0914 3.4694,81.2254 3.5834,81.3904 C3.6974,81.5564 3.7814,81.7444 3.8344,81.9554 C3.8884,82.1674 3.9154,82.3834 3.9154,82.6044 C3.9154,82.7444 3.9044,82.8844 3.8824,83.0244 C3.8604,83.1644 3.8254,83.3004 3.7764,83.4324 C3.7274,83.5634 3.6644,83.6854 3.5884,83.8004 C3.5114,83.9144 3.4184,84.0134 3.3074,84.0984 C3.1964,84.1824 3.0674,84.2494 2.9204,84.2984 C2.7734,84.3474 2.6054,84.3714 2.4184,84.3714 L1.6824,84.3714 Z M0.9524,85.0604 L2.3024,85.0604 C2.6014,85.0604 2.8674,85.0264 3.1014,84.9574 C3.3354,84.8894 3.5404,84.7954 3.7164,84.6754 C3.8924,84.5554 4.0404,84.4154 4.1614,84.2554 C4.2824,84.0954 4.3814,83.9244 4.4584,83.7434 C4.5344,83.5624 4.5894,83.3734 4.6224,83.1784 C4.6554,82.9834 4.6724,82.7914 4.6724,82.6044 C4.6724,82.4034 4.6534,82.2024 4.6174,82.0024 C4.5804,81.8014 4.5234,81.6094 4.4444,81.4284 C4.3654,81.2464 4.2644,81.0774 4.1414,80.9214 C4.0184,80.7654 3.8694,80.6294 3.6964,80.5154 C3.5224,80.4014 3.3224,80.3114 3.0964,80.2464 C2.8704,80.1814 2.6144,80.1494 2.3294,80.1494 L0.9524,80.1494 L0.9524,85.0604 Z" id="Fill-13" fill="#00A1AC"></path>
    </g>
</svg>